<svg width="1080" height="1080" viewBox="0 0 1080 1080" fill="none" xmlns="http://www.w3.org/2000/svg">
<rect width="1080" height="1080" rx="90" fill="white"/>
<rect x="72" y="772" width="724" height="172" rx="86" fill="#CA8787"/>
<rect x="72" y="348" width="724" height="172" rx="86" fill="#CA8787"/>
<rect x="72" y="560" width="724" height="172" rx="86" fill="#CA8787"/>
<rect x="284" y="136" width="724" height="172" rx="86" fill="#B0CAA0"/>
<path d="M220 208.144C230.667 214.302 230.667 229.698 220 235.856L139 282.622C128.333 288.78 115 281.082 115 268.765L115 175.235C115 162.918 128.333 155.22 139 161.378L220 208.144Z" fill="#575757"/>
<path d="M378.344 270V174H416.219C423.5 174 429.703 175.391 434.828 178.172C439.953 180.922 443.859 184.75 446.547 189.656C449.266 194.531 450.625 200.156 450.625 206.531C450.625 212.906 449.25 218.531 446.5 223.406C443.75 228.281 439.766 232.078 434.547 234.797C429.359 237.516 423.078 238.875 415.703 238.875H391.563V222.609H412.422C416.328 222.609 419.547 221.937 422.078 220.594C424.641 219.219 426.547 217.328 427.797 214.922C429.078 212.484 429.719 209.687 429.719 206.531C429.719 203.344 429.078 200.562 427.797 198.187C426.547 195.781 424.641 193.922 422.078 192.609C419.516 191.266 416.266 190.594 412.328 190.594H398.641V270H378.344Z" fill="white"/>
<path d="M182.891 482H161.141L194.281 386H220.438L253.531 482H231.781L207.734 407.937H206.984L182.891 482ZM181.531 444.266H232.906V460.109H181.531V444.266Z" fill="white"/>
<path d="M200.375 694H166.344V598H200.656C210.313 598 218.625 599.922 225.594 603.766C232.563 607.578 237.922 613.062 241.672 620.219C245.453 627.375 247.344 635.937 247.344 645.906C247.344 655.906 245.453 664.5 241.672 671.687C237.922 678.875 232.531 684.391 225.5 688.234C218.5 692.078 210.125 694 200.375 694ZM186.641 676.609H199.531C205.531 676.609 210.578 675.547 214.672 673.422C218.797 671.266 221.891 667.937 223.953 663.437C226.047 658.906 227.094 653.063 227.094 645.906C227.094 638.812 226.047 633.016 223.953 628.516C221.891 624.016 218.813 620.703 214.719 618.578C210.625 616.453 205.578 615.391 199.578 615.391H186.641V676.609Z" fill="white"/>
<path d="M218.422 837.609C218.047 833.828 216.438 830.891 213.594 828.797C210.75 826.703 206.891 825.656 202.016 825.656C198.703 825.656 195.906 826.125 193.625 827.062C191.344 827.969 189.594 829.234 188.375 830.859C187.188 832.484 186.594 834.328 186.594 836.391C186.531 838.109 186.891 839.609 187.672 840.891C188.484 842.172 189.594 843.281 191 844.219C192.406 845.125 194.031 845.922 195.875 846.609C197.719 847.266 199.688 847.828 201.781 848.297L210.406 850.359C214.594 851.297 218.438 852.547 221.938 854.109C225.438 855.672 228.469 857.594 231.031 859.875C233.594 862.156 235.578 864.844 236.984 867.937C238.422 871.031 239.156 874.578 239.187 878.578C239.156 884.453 237.656 889.547 234.688 893.859C231.75 898.141 227.5 901.469 221.938 903.844C216.406 906.187 209.734 907.359 201.922 907.359C194.172 907.359 187.422 906.172 181.672 903.797C175.953 901.422 171.484 897.906 168.266 893.25C165.078 888.562 163.406 882.766 163.25 875.859H182.891C183.109 879.078 184.031 881.766 185.656 883.922C187.313 886.047 189.516 887.656 192.266 888.75C195.047 889.812 198.188 890.344 201.687 890.344C205.125 890.344 208.109 889.844 210.641 888.844C213.203 887.844 215.188 886.453 216.594 884.672C218 882.891 218.703 880.844 218.703 878.531C218.703 876.375 218.063 874.562 216.781 873.094C215.531 871.625 213.688 870.375 211.25 869.344C208.844 868.312 205.891 867.375 202.391 866.531L191.938 863.906C183.844 861.937 177.453 858.859 172.766 854.672C168.078 850.484 165.75 844.844 165.781 837.75C165.75 831.937 167.297 826.859 170.422 822.516C173.578 818.172 177.906 814.781 183.406 812.344C188.906 809.906 195.156 808.687 202.156 808.687C209.281 808.687 215.5 809.906 220.813 812.344C226.156 814.781 230.313 818.172 233.281 822.516C236.25 826.859 237.781 831.891 237.875 837.609H218.422Z" fill="white"/>
<circle cx="922" cy="222" r="43" fill="#7EA766"/>
<circle cx="922" cy="434" r="86" fill="#CA8787"/>
<circle cx="707" cy="434" r="43" fill="#956363"/>
<circle cx="707" cy="646" r="43" fill="#956363"/>
<circle cx="707" cy="858" r="43" fill="#956363"/>
<circle cx="922" cy="652" r="86" fill="#CA8787"/>
<circle cx="922" cy="858" r="86" fill="#CA8787"/>
</svg>
